HIERARCHY
ROOT Hips
{
	OFFSET 0.000000 0.000000 0.000000
	CHANNELS 6 Xposition Yposition Zposition Xrotation Yrotation Zrotation
	JOINT LeftUpLeg_virtual
	{
		OFFSET 0.000000 0.000000 0.000000
		CHANNELS 3 Xrotation Yrotation Zrotation
		JOINT LeftUpLeg
		{
			OFFSET 15.427100 -6.655098 0.678600
			CHANNELS 3 Xrotation Yrotation Zrotation
			JOINT LeftLeg
			{
				OFFSET 4.081073 -39.591068 13.024000
				CHANNELS 3 Xrotation Yrotation Zrotation
				JOINT LeftFoot
				{
					OFFSET -4.081074 -37.707932 -15.979700
					CHANNELS 3 Xrotation Yrotation Zrotation
					JOINT LeftToeBase
					{
						OFFSET 5.346399 -15.068900 20.645000
						CHANNELS 3 Xrotation Yrotation Zrotation
						JOINT LeftToe_End
						{
							OFFSET 2.754700 0.931300 11.300900
							CHANNELS 3 Xrotation Yrotation Zrotation
							End Site
							{
								OFFSET 0 0 0
							}
						}
					}
				}
			}
		}
	}
	JOINT RightUpLeg_virtual
	{
		OFFSET 0.000000 0.000000 0.000000
		CHANNELS 3 Xrotation Yrotation Zrotation
		JOINT RightUpLeg
		{
			OFFSET -15.569500 -6.655098 0.678600
			CHANNELS 3 Xrotation Yrotation Zrotation
			JOINT RightLeg
			{
				OFFSET -4.081825 -39.591045 13.023800
				CHANNELS 3 Xrotation Yrotation Zrotation
				JOINT RightFoot
				{
					OFFSET 4.081824 -37.707954 -15.979600
					CHANNELS 3 Xrotation Yrotation Zrotation
					JOINT RightToeBase
					{
						OFFSET -5.346400 -15.068900 20.645000
						CHANNELS 3 Xrotation Yrotation Zrotation
						JOINT RightToe_End
						{
							OFFSET -2.754700 0.931300 11.300900
							CHANNELS 3 Xrotation Yrotation Zrotation
							End Site
							{
								OFFSET 0 0 0
							}
						}
					}
				}
			}
		}
	}
	JOINT Spine_virtual
	{
		OFFSET 0.000000 0.000000 0.000000
		CHANNELS 3 Xrotation Yrotation Zrotation
		JOINT Spine
		{
			OFFSET -0.279200 12.230698 -2.892100
			CHANNELS 3 Xrotation Yrotation Zrotation
			JOINT Spine1
			{
				OFFSET -0.232667 10.192268 -1.242267
				CHANNELS 3 Xrotation Yrotation Zrotation
				JOINT Spine1_split
				{
					OFFSET -0.232667 10.192268 -1.242267
					CHANNELS 3 Xrotation Yrotation Zrotation
					JOINT Spine2
					{
						OFFSET -0.232667 10.192268 -1.242267
						CHANNELS 3 Xrotation Yrotation Zrotation
						JOINT Neck_virtual
						{
							OFFSET 0.000000 0.000000 0.000000
							CHANNELS 3 Xrotation Yrotation Zrotation
							JOINT Neck
							{
								OFFSET -0.418800 17.814194 8.416900
								CHANNELS 3 Xrotation Yrotation Zrotation
								JOINT Head
								{
									OFFSET 0.000000 7.031097 3.806800
									CHANNELS 3 Xrotation Yrotation Zrotation
									JOINT HeadTop_End
									{
										OFFSET 0.000000 24.646606 12.978600
										CHANNELS 3 Xrotation Yrotation Zrotation
										End Site
										{
											OFFSET 0 0 0
										}
									}
								}
							}
						}
						JOINT LeftShoulder_virtual
						{
							OFFSET 0.000000 0.000000 0.000000
							CHANNELS 3 Xrotation Yrotation Zrotation
							JOINT LeftShoulder
							{
								OFFSET 8.476499 7.247704 -3.868750
								CHANNELS 3 Xrotation Yrotation Zrotation
								JOINT LeftShoulder_split
								{
									OFFSET 8.476499 7.247704 -3.868750
									CHANNELS 3 Xrotation Yrotation Zrotation
									JOINT LeftArm
									{
										OFFSET 9.308998 -2.777710 0.208600
										CHANNELS 3 Xrotation Yrotation Zrotation
										JOINT LeftForeArm
										{
											OFFSET 29.972298 0.000000 0.000000
											CHANNELS 3 Xrotation Yrotation Zrotation
											JOINT LeftHand
											{
												OFFSET 26.026505 0.000000 0.000000
												CHANNELS 3 Xrotation Yrotation Zrotation
												End Site
												{
													OFFSET 0 0 0
												}
											}
										}
									}
								}
							}
						}
						JOINT RightShoulder_virtual
						{
							OFFSET 0.000000 0.000000 0.000000
							CHANNELS 3 Xrotation Yrotation Zrotation
							JOINT RightShoulder
							{
								OFFSET -7.570500 7.247704 -3.868750
								CHANNELS 3 Xrotation Yrotation Zrotation
								JOINT RightShoulder_split
								{
									OFFSET -7.570500 7.247704 -3.868750
									CHANNELS 3 Xrotation Yrotation Zrotation
									JOINT RightArm
									{
										OFFSET -9.308998 -2.777710 0.208500
										CHANNELS 3 Xrotation Yrotation Zrotation
										JOINT RightForeArm
										{
											OFFSET -29.972300 0.000000 0.000000
											CHANNELS 3 Xrotation Yrotation Zrotation
											JOINT RightHand
											{
												OFFSET -26.026505 0.000000 0.000000
												CHANNELS 3 Xrotation Yrotation Zrotation
												End Site
												{
													OFFSET 0 0 0
												}
											}
										}
									}
								}
							}
						}
					}
				}
			}
		}
	}
}
MOTION
Frames: 6
Frame Time: 0.03333333
-4.269174 40.939224 -2.270737 0.000000 0.000000 0.000000 -176.458880 39.555142 170.997187 -80.204466 -23.593574 22.216075 105.808339 -11.833924 1.180992 -21.012011 24.744725 -19.917101 2.007544 -6.844718 3.244148 0.000000 0.000000 0.000000 -175.991954 42.213571 169.145619 -46.883597 21.968388 -15.302025 95.071179 5.566416 -1.112065 -25.359927 -25.102216 38.815989 -1.111668 4.114318 -19.082558 0.000000 0.000000 0.000000 -178.636494 40.185305 174.017647 7.726185 1.509067 -5.585899 6.438354 0.308071 -3.516686 0.092883 0.143615 -0.001739 0.000000 0.000000 0.000000 9.624827 3.572412 -2.786846 -11.014993 12.458415 12.662223 -13.969956 28.758822 -17.987745 0.000000 0.000000 0.000000 6.472123 2.214776 -4.020837 1.194709 -12.599104 -7.233793 -1.570137 -4.335830 -3.299826 -8.078393 -10.339492 -29.398698 58.765916 -36.668267 18.714597 0.000000 0.000000 0.000000 8.379665 1.935045 -2.826688 -4.979620 -8.063096 15.493997 -25.532415 -11.506121 5.244678 25.634228 3.236211 42.076475 19.042824 68.928432 12.728781 0.000000 0.000000 0.000000 
-4.276877 40.926521 -2.277172 0.000000 0.000000 0.000000 -176.471802 39.545757 171.006736 -80.233713 -23.610921 22.201641 105.820708 -11.827492 1.182879 -20.988265 24.731219 -19.952453 1.984984 -6.845759 3.253965 0.000000 0.000000 0.000000 -176.003224 42.209623 169.153309 -46.888139 21.970376 -15.294213 95.073255 5.571643 -1.118636 -25.370094 -25.105967 38.821112 -1.123811 4.117653 -19.082121 0.000000 0.000000 0.000000 -178.648652 40.180056 174.026076 7.712801 1.505523 -5.584737 6.439095 0.310596 -3.513742 0.091475 0.140740 -0.002896 0.000000 0.000000 0.000000 9.625374 3.575504 -2.787028 -10.988168 12.470711 12.666692 -13.938849 28.768788 -18.010886 0.000000 0.000000 0.000000 6.473634 2.214932 -4.018289 1.191360 -12.650238 -7.235805 -1.552525 -4.348465 -3.319627 -8.127312 -10.361472 -29.448190 58.777241 -36.639932 18.708102 0.000000 0.000000 0.000000 8.379967 1.937350 -2.823504 -4.972339 -8.073989 15.492090 -25.523346 -11.504342 5.230619 25.663205 3.227945 42.110770 19.034124 68.862841 12.730308 0.000000 0.000000 0.000000 
-4.293077 40.910042 -2.280327 0.000000 0.000000 0.000000 -176.494165 39.520349 171.015765 -80.270302 -23.634804 22.200960 105.827655 -11.832820 1.173321 -20.988864 24.699868 -19.946792 1.948307 -6.846150 3.268425 0.000000 0.000000 0.000000 -176.024603 42.200600 169.164730 -46.871367 21.968653 -15.295742 95.061289 5.579859 -1.122901 -25.381616 -25.118620 38.835349 -1.110848 4.116736 -19.085756 0.000000 0.000000 0.000000 -178.665413 40.162984 174.024723 7.690720 1.507416 -5.596448 6.437700 0.320008 -3.504402 0.091135 0.140596 -0.004151 0.000000 0.000000 0.000000 9.623329 3.584809 -2.779483 -10.950150 12.485337 12.682096 -13.871326 28.768555 -18.070573 0.000000 0.000000 0.000000 6.467629 2.222350 -4.007868 1.187093 -12.733393 -7.247121 -1.545497 -4.342402 -3.338163 -8.141685 -10.395289 -29.472697 58.810353 -36.642957 18.737912 0.000000 0.000000 0.000000 8.377991 1.945478 -2.813977 -4.959380 -8.115516 15.476018 -25.522405 -11.476566 5.214231 25.693893 3.233360 42.159865 19.032865 68.727372 12.725564 0.000000 0.000000 0.000000 
-4.315145 40.895100 -2.276463 0.000000 0.000000 0.000000 -176.519846 39.483845 171.020383 -80.314869 -23.665480 22.213440 105.829786 -11.846023 1.152343 -21.007078 24.656674 -19.900846 1.934111 -6.843107 3.273516 0.000000 0.000000 0.000000 -176.052388 42.184478 169.176778 -46.831411 21.957866 -15.307998 95.039179 5.589707 -1.125056 -25.388078 -25.140178 38.866942 -1.086317 4.113876 -19.093106 0.000000 0.000000 0.000000 -178.687174 40.134024 174.019218 7.664189 1.515342 -5.615846 6.436957 0.336380 -3.489413 0.091492 0.141281 -0.004956 0.000000 0.000000 0.000000 9.618870 3.600792 -2.765133 -10.908219 12.497898 12.709199 -13.784297 28.750732 -18.154979 0.000000 0.000000 0.000000 6.458906 2.237041 -3.991602 1.183018 -12.834830 -7.267294 -1.542831 -4.318866 -3.348788 -8.114060 -10.422993 -29.455621 58.849122 -36.672010 18.789451 0.000000 0.000000 0.000000 8.375833 1.959664 -2.799825 -4.942699 -8.185738 15.444038 -25.521145 -11.431599 5.191325 25.703419 3.260806 42.217413 19.036774 68.534070 12.715235 0.000000 0.000000 0.000000 
-4.338489 40.884300 -2.264046 0.000000 0.000000 0.000000 -176.548096 39.438089 171.023101 -80.376539 -23.703856 22.230968 105.826657 -11.865838 1.122231 -21.017068 24.601358 -19.834816 1.949593 -6.835641 3.265978 0.000000 0.000000 0.000000 -176.083916 42.156266 169.187447 -46.767142 21.935298 -15.328975 95.007228 5.599854 -1.126747 -25.391829 -25.171141 38.917871 -1.074031 4.111984 -19.101949 0.000000 0.000000 0.000000 -178.712897 40.093221 174.013617 7.637699 1.529920 -5.635542 6.440431 0.358243 -3.470090 0.092438 0.142859 -0.004706 0.000000 0.000000 0.000000 9.614910 3.622091 -2.746970 -10.872559 12.504904 12.748104 -13.697074 28.711977 -18.251983 0.000000 0.000000 0.000000 6.453478 2.257362 -3.971976 1.180125 -12.943642 -7.295257 -1.538844 -4.303183 -3.357465 -8.052004 -10.436159 -29.391807 58.883826 -36.735308 18.857746 0.000000 0.000000 0.000000 8.377189 1.979920 -2.783286 -4.925134 -8.281646 15.396452 -25.515799 -11.390683 5.165635 25.681745 3.323235 42.277095 19.046664 68.288204 12.697304 0.000000 0.000000 0.000000 
-4.359729 40.879402 -2.247196 0.000000 0.000000 0.000000 -176.577151 39.384643 171.026380 -80.466506 -23.751804 22.243377 105.820380 -11.893164 1.089604 -20.990373 24.531644 -19.773804 1.964891 -6.826045 3.257798 0.000000 0.000000 0.000000 -176.117575 42.112426 169.197719 -46.669521 21.902960 -15.356656 94.966527 5.607208 -1.129487 -25.407305 -25.210814 38.977721 -1.075834 4.110640 -19.108527 0.000000 0.000000 0.000000 -178.739152 40.042384 174.009793 7.617240 1.551201 -5.647869 6.451760 0.383741 -3.449001 0.093838 0.144724 -0.003579 0.000000 0.000000 0.000000 9.615273 3.647502 -2.728088 -10.849392 12.503631 12.797667 -13.623640 28.654522 -18.351754 0.000000 0.000000 0.000000 6.456882 2.280831 -3.952440 1.179183 -13.047563 -7.329589 -1.533965 -4.296233 -3.364942 -7.989920 -10.432154 -29.289081 58.906885 -36.841231 18.939095 0.000000 0.000000 0.000000 8.385595 2.005980 -2.767092 -4.908948 -8.395800 15.337391 -25.502528 -11.367681 5.141617 25.624256 3.432983 42.338731 19.063485 67.981931 12.669824 0.000000 0.000000 0.000000 
